<svg xmlns="http://www.w3.org/2000/svg" fill="none" viewBox="0 0 512 512">
  <path fill="#3C3E3D" d="M0 0h512v512H0z"/>
  <path fill="#fff" d="M157.184 347.392c-23.04 0-41.131-6.656-54.272-19.968C89.771 314.112 83.2 294.571 83.2 268.8V166.4h19.712v101.888c0 21.163 4.693 36.693 14.08 46.592 9.387 9.899 22.784 14.848 40.192 14.848 17.579 0 31.061-4.949 40.448-14.848 9.387-9.899 14.08-25.429 14.08-46.592V166.4h19.2v102.4c0 25.941-6.571 45.568-19.712 58.88-12.971 13.141-30.976 19.712-54.016 19.712ZM431.102 345.6h-21.504l-40.704-57.344c-4.267.512-8.96.768-14.08.768h-47.616V345.6h-19.712v-73.472h66.816c17.92 0 31.403-3.84 40.448-11.52 9.216-7.68 13.824-18.603 13.824-32.768s-4.608-25.088-13.824-32.768c-9.045-7.68-22.528-11.52-40.448-11.52h-66.816V166.4h67.328c11.435 0 21.675 1.451 30.72 4.352 9.216 2.731 16.981 6.741 23.296 12.032 6.315 5.291 11.093 11.776 14.336 19.456 3.413 7.509 5.12 16.043 5.12 25.6 0 14.165-3.584 26.027-10.752 35.584-6.997 9.557-16.981 16.469-29.952 20.736l43.52 61.44Z"/>
</svg>
